<svg t="1713173962606" class="icon" viewBox="0 0 1025 1024" version="1.1" xmlns="http://www.w3.org/2000/svg" p-id="2639" width="32" height="32"><path d="M512 0C229.681466 0 0 229.681466 0 512c0 282.318534 229.681466 512 512 512 282.360128 0 512.062391-229.681466 512.062391-512C1024.062391 229.681466 794.360128 0 512 0L512 0zM512 981.324668c-258.797189 0-469.345465-210.527479-469.345465-469.324668 0-258.797189 210.527479-469.345465 469.345465-469.345465 258.838783 0 469.387059 210.527479 469.387059 469.345465C981.387059 770.797189 770.838783 981.324668 512 981.324668L512 981.324668zM512 981.324668" fill="#272636" p-id="2640"></path><path d="M755.449043 628.858036c-11.126366-3.95142-23.292579 1.788537-27.285592 12.894106-32.568017 90.882652-119.35367 151.96328-215.997075 151.96328-96.996954 0-183.907389-61.41338-216.267436-152.815955-3.930623-11.126366-16.096836-16.88712-27.243999-12.998091-11.084772 3.930623-16.928714 16.13843-12.998091 27.243999 38.370364 108.414477 141.460823 181.224583 256.488728 181.224583 114.570372 0 217.515252-72.414964 256.155977-180.226329C772.315366 645.079654 766.533815 632.830253 755.449043 628.858036L755.449043 628.858036zM755.449043 628.858036" fill="#272636" p-id="2641"></path><path d="M313.909095 338.220724c42.862505 0 77.780576 42.238596 77.780576 94.147772 0 11.771071 9.566595 21.337666 21.337666 21.337666 11.771071 0 21.337666-9.566595 21.337666-21.337666 0-75.430521-54.030464-136.823104-120.435111-136.823104s-120.414314 61.392583-120.414314 136.823104c0 11.771071 9.566595 21.337666 21.337666 21.337666 11.771071 0 21.337666-9.566595 21.337666-21.337666C236.128519 380.438523 271.004996 338.220724 313.909095 338.220724L313.909095 338.220724zM313.909095 338.220724" fill="#272636" p-id="2642"></path><path d="M710.153296 295.566189c-66.38385 0-120.435111 61.392583-120.435111 136.823104 0 11.771071 9.566595 21.337666 21.337666 21.337666 11.771071 0 21.337666-9.566595 21.337666-21.337666 0-51.909176 34.897274-94.147772 77.780576-94.147772 42.883302 0 77.738982 42.238596 77.738982 94.147772 0 11.771071 9.566595 21.337666 21.337666 21.337666 11.771071 0 21.337666-9.566595 21.337666-21.337666C830.588407 356.917178 776.57874 295.566189 710.153296 295.566189L710.153296 295.566189zM710.153296 295.566189" fill="#272636" p-id="2643"></path></svg>
